<?xml version="1.0" encoding="UTF-8"?>
<svg width="136.06" height="24.567" version="1.1" viewBox="0 0 27.213 4.9134" xmlns="http://www.w3.org/2000/svg" xmlns:cc="http://creativecommons.org/ns#" xmlns:dc="http://purl.org/dc/elements/1.1/" xmlns:rdf="http://www.w3.org/1999/02/22-rdf-syntax-ns#">
 <style>
.primaryFill { fill: #eb2188; }
.secondaryFill { fill: #210070; }
.primaryStroke { stroke: #eb2188; }
.secondaryStroke { stroke: #210070; }
@media (prefers-color-scheme: dark) {
    .primaryFill { fill: #c8ff00; }
    .secondaryFill { fill: #eb2188; }
    .primaryStroke { stroke: #c8ff00; }
    .secondaryStroke { stroke: #eb2188; }
}</style>
 <title>mt32-pi logo</title>
 <metadata>
  <rdf:RDF>
   <cc:Work rdf:about="">
    <dc:format>image/svg+xml</dc:format>
    <dc:type rdf:resource="http://purl.org/dc/dcmitype/StillImage"/>
    <dc:title>mt32-pi logo</dc:title>
    <dc:date>6/1/2021</dc:date>
    <dc:creator>
     <cc:Agent>
      <dc:title>Dale Whinham</dc:title>
     </cc:Agent>
    </dc:creator>
    <cc:license rdf:resource="http://creativecommons.org/licenses/by-nd/4.0/"/>
   </cc:Work>
   <cc:License rdf:about="http://creativecommons.org/licenses/by-nd/4.0/">
    <cc:permits rdf:resource="http://creativecommons.org/ns#Reproduction"/>
    <cc:permits rdf:resource="http://creativecommons.org/ns#Distribution"/>
    <cc:requires rdf:resource="http://creativecommons.org/ns#Notice"/>
    <cc:requires rdf:resource="http://creativecommons.org/ns#Attribution"/>
   </cc:License>
  </rdf:RDF>
 </metadata>
 <path class="secondaryFill" d="m0.13022 3.9801 20.72 9.99e-4 -0.13022 0.65147-20.72-9.99e-4z"/>
 <path class="secondaryFill" d="m22.33 3.9801 2.0698 1e-3 -0.13022 0.65147-2.0698-1e-3z"/>
 <path class="secondaryFill" d="m26.6 3.9815h0.1l-0.13022 0.65148h-0.1z"/>
 <path class="secondaryFill" d="m26.2 3.9815h0.2l-0.13022 0.6515h-0.2z"/>
 <path class="secondaryFill" d="m25.6 3.9815h0.4l-0.13022 0.6515h-0.4z"/>
 <g class="secondaryFill" aria-label="ベアメタルシンセサイザーシステム">
  <path d="m0.74848 0.28374q0.027865-0.017448 0.054427-0.045312 0.040365-0.041146 0.077344-0.080469 0.016927-0.017969 0.027083-0.023438 0.009115-0.004948 0.020833-0.004948 0.013542 0 0.023438 0.004948 0.009375 0.004687 0.022917 0.016927 0.097136 0.086458 0.23906 0.17344 0.00651 0.002865 0.00651 0.008333 0 0.002865-0.00182 0.00599-0.013542 0.027604-0.027604 0.046354-0.00417 0.00599-0.00807 0.00599-0.00286 0-0.00573-0.002083-0.12109-0.083854-0.23646-0.18646-0.004427-0.003646-0.008333-0.003646-0.004427 0-0.008594 0.004167-0.015365 0.015885-0.042448 0.046615-0.030208 0.034375-0.044531 0.05026-0.014323 0.015625-0.021354 0.027083-0.004427 0.007031-0.009635 0.007031-0.003646 0-0.007552-0.003646-0.01875-0.015625-0.049479-0.047135zm0.29115-0.17161 0.028385-0.019792q0.00156-0.0013021 0.00313-0.0013021 0.00208 0 0.00469 0.0023438 0.027344 0.021094 0.050781 0.057031 0.00156 0.002083 0.00156 0.003906 0 0.002344-0.00313 0.004688l-0.022396 0.016406q-0.00234 0.001823-0.00417 0.001823-0.0026 0-0.00495-0.003385-0.02474-0.038021-0.053906-0.061719zm0.049219-0.035417 0.026562-0.01901q0.00208-0.0013021 0.00339-0.0013021 0.00182 0 0.00469 0.0023437 0.030469 0.023177 0.050521 0.054948 0.00156 0.002344 0.00156 0.004427 0 0.002604-0.00313 0.005208l-0.021354 0.016407q-0.00234 0.001823-0.00417 0.001823-0.0026 0-0.00495-0.003385-0.022135-0.035677-0.053125-0.061458z"/>
  <path d="m1.3073 0.062389q0.050781 0.0036458 0.10833 0.0036458h0.22865q0.028906 0 0.036979-0.003125 0.00911-0.0039063 0.010156-0.0039063 0.00573 0 0.01224 0.0075521 0.014583 0.0125 0.032031 0.033594 0.00417 0.004948 0.00417 0.009635 0 0.00599-0.00755 0.011198-0.00651 0.004687-0.014323 0.015365-0.039844 0.060156-0.09375 0.10312-0.00495 0.004688-0.011198 0.004688-0.00677 0-0.013021-0.005208-0.016927-0.013802-0.044271-0.022135 0.036719-0.027344 0.056771-0.047135 0.021094-0.020573 0.038802-0.046094h-0.23047q-0.032031 0-0.094271 0.004167-0.00781 5.2084e-4 -0.00964-0.008073-0.00365-0.0125-0.00964-0.057292zm0.032031 0.37135q0.045833-0.023958 0.072396-0.04974 0.022656-0.021875 0.039063-0.052083 0.026042-0.048958 0.026042-0.12604 0-0.027344-0.00521-0.05 0.047656 0.004688 0.06875 0.010156 0.00911 0.002083 0.00911 0.010156 0 0.004167-0.0026 0.009375-0.00417 0.008073-0.00495 0.021875-0.00286 0.091406-0.03151 0.14687-0.034375 0.066146-0.096875 0.10625-0.00807 0.005208-0.015104 0.005208-0.00573 0-0.010677-0.004948-0.018229-0.015885-0.048437-0.027083z"/>
  <path d="m2.0667 0.19963q0.027604-0.042188 0.051302-0.094531 0.015104-0.035937 0.020312-0.065625 0.047396 0.017188 0.067187 0.033594 0.00521 0.0039063 0.00521 0.0091146 0 0.0067708-0.00599 0.011719-0.00833 0.0072917-0.023958 0.035677-0.036458 0.070312-0.060677 0.10573 0.036458 0.028385 0.078385 0.072396 0.00312 0.003906 0.00312 0.007552 0 0.002344-0.0026 0.006771-0.010677 0.014062-0.032552 0.038021-0.00286 0.003646-0.00651 0.003646-0.00339 0-0.00729-0.004688-0.033073-0.039583-0.069792-0.070573-0.085156 0.10703-0.18255 0.16667-0.00677 0.004167-0.012239 0.004167-0.00573 0-0.010156-0.003646-0.027865-0.023177-0.047917-0.029427 0.067187-0.039323 0.11589-0.082552 0.04375-0.039062 0.085156-0.092448-0.049219-0.036719-0.10391-0.063542 0.029167-0.03724 0.035156-0.04375 0.0026-0.002604 0.00521-0.002604 0.00234 0 0.00651 0.002083 0.04349 0.021875 0.092708 0.05625z"/>
  <path d="m2.6711 0.29025q0.034896 0.028125 0.057552 0.053646 0.00312 0.003385 0.00312 0.007552 0 0.003646-0.00312 0.007031-0.016406 0.019792-0.033073 0.033594-0.00365 0.002604-0.00651 0.002604-0.0026 0-0.00573-0.003125-0.021875-0.025521-0.051823-0.051823-0.076302 0.082292-0.17005 0.13333-0.00859 0.004688-0.013281 0.004688-0.00469 0-0.010156-0.004688-0.021094-0.017188-0.050781-0.027083 0.066667-0.034115 0.11276-0.06875 0.041667-0.03151 0.083594-0.075781-0.033854-0.027604-0.076823-0.05026 0.032031-0.034896 0.035156-0.038021 0.00365-0.003646 0.00703-0.003646 0.00104 0 0.00521 0.002083 0.022917 0.010938 0.06875 0.042708 0.035417-0.045573 0.0625-0.10547l-0.13229 0.002604q-0.063802 0.08151-0.11406 0.12005-0.00677 0.004688-0.010677 0.004688-0.00495 0-0.00859-0.003646-0.01875-0.013542-0.044792-0.024479 0.05651-0.044792 0.094531-0.089323 0.029427-0.033854 0.05651-0.078125 0.022917-0.039062 0.028646-0.065625 0.048437 0.016927 0.0625 0.026042 0.00573 0.0028646 0.00573 0.0085937 0 0.0059896-0.00651 0.010677-0.00599 0.0039063-0.010937 0.011198-0.00625 0.010938-0.016667 0.026562l0.09401-0.0020833q0.017187-5.2083e-4 0.029167-0.0080729 0.00547-0.0036458 0.00911-0.0036458 0.00365 0 0.00964 0.0041667 0.016927 0.010156 0.036458 0.032552 0.00417 0.004427 0.00417 0.009635 0 0.004948-0.00599 0.010156-0.010156 0.009115-0.015885 0.020312-0.039323 0.077604-0.078385 0.12917z"/>
  <path d="m3.1706 0.33817q0.035677-0.01901 0.075781-0.04974 0.055208-0.042188 0.093229-0.090625 0.00313 0.028125 0.016667 0.053906 0.00312 0.007552 0.00312 0.009115 0 0.005469-0.00807 0.013281-0.039323 0.040365-0.078906 0.070052-0.045833 0.035156-0.094792 0.064062-0.00755 0.004948-0.015365 0.011198-0.00521 0.004167-0.010937 0.004167-0.00417 0-0.011198-0.004167-0.015365-0.010677-0.032031-0.032552-0.00469-0.007292-0.00469-0.011198 0-0.003906 0.00208-0.008073 0.00312-0.00599 0.00312-0.040625v-0.16693q0-0.068229-0.00547-0.092969 0.050521 0.0065104 0.066927 0.011198 0.00964 0.0023437 0.00964 0.0091146 0 0.0049479-0.00417 0.013542-0.00495 0.009896-0.00495 0.059115zm-0.1862-0.23724q0.051562 0.00625 0.067708 0.011719 0.00859 0.002344 0.00859 0.009635 0 0.002865-0.00156 0.006771-0.00651 0.01276-0.00651 0.036198-0.00156 0.095833-0.028906 0.15677-0.023437 0.055469-0.075781 0.10026-0.00859 0.007031-0.013802 0.007031-0.00417 0-0.010156-0.004167-0.01875-0.013021-0.045313-0.022396 0.0625-0.047396 0.088542-0.10625 0.01276-0.03125 0.017188-0.061719 0.00495-0.032292 0.00521-0.089062 0-0.025-0.00521-0.044792z"/>
  <path d="m3.4355 0.21864q0.00156-0.002344 0.017708-0.028906 0.00703-0.011458 0.010677-0.016406 0.00391-0.005469 0.00807-0.005469 0.00104 0 0.00182 2.6041e-4 0.055469 0.01849 0.1026 0.052344 0.00573 0.004167 0.00573 0.007813 0 0.001823-0.00208 0.00599-0.00677 0.016406-0.023437 0.040625-0.00443 0.005208-0.00703 0.005208-0.00234 0-0.00625-0.003125-0.045573-0.033594-0.10781-0.058333zm0.064583-0.12526 0.028125-0.042708q0.00365-0.0059896 0.00755-0.0059896 0.00234 0 0.00599 0.0018229 0.060677 0.024479 0.10026 0.059115 0.00417 0.002865 0.00417 0.007031 0 0.003385-0.00208 0.006771-0.015365 0.027604-0.027344 0.040104-0.00182 0.003125-0.00521 0.003125t-0.00807-0.003646q-0.05-0.041406-0.10339-0.065625zm-0.022396 0.30391q0.033854-0.00651 0.072396-0.026042 0.086458-0.045573 0.14609-0.092188 0.082552-0.063021 0.15365-0.14896 0.00365 0.02526 0.015625 0.059896 0.0026 0.00625 0.0026 0.010156 0 0.00625-0.00573 0.01224-0.060938 0.065104-0.13568 0.12318-0.061979 0.047135-0.15938 0.10026-0.028125 0.015104-0.03099 0.018229-0.00417 0.004167-0.00859 0.004167-0.00573 0-0.010677-0.00651-0.015104-0.015104-0.039323-0.054427z"/>
  <path d="m3.9873 0.11838q0.013281-0.016146 0.03724-0.041667 0.00339-0.0041667 0.00755-0.0041667 0.00234 0 0.00703 0.0026042 0.04974 0.026562 0.10182 0.075781 0.00469 0.004687 0.00469 0.007552t-0.00313 0.006771q-0.017448 0.023177-0.033073 0.040104-0.00443 0.004167-0.00651 0.004167-0.0026 0-0.00677-0.004167-0.048698-0.05026-0.10885-0.086979zm0.011719 0.26615q0.042708-0.011719 0.072135-0.026562 0.051562-0.026823 0.085677-0.049219 0.029948-0.019531 0.067708-0.05 0.053646-0.04349 0.085156-0.075 0.029948-0.030208 0.061198-0.070052 0.00417 0.035156 0.014844 0.06224 0.0026 0.00625 0.0026 0.010156 0 0.00599-0.00859 0.016146-0.046615 0.054427-0.12266 0.11302-0.066146 0.051823-0.16094 0.10443-0.028125 0.016927-0.035677 0.02474-0.00547 0.005208-0.00964 0.005208t-0.00911-0.005729q-0.02474-0.027865-0.042708-0.059375z"/>
  <path d="m4.6248 0.18843v-0.051302q0-0.058594-0.00703-0.09401 0.044531 0.0036458 0.06901 0.010677 0.010156 0.0023437 0.010156 0.0096354 0 0.0039063-0.00313 0.0085937-0.00703 0.013281-0.00703 0.047396v0.054948l0.13906-0.032552q0.025521-0.005729 0.038021-0.015365 0.00391-0.003125 0.00729-0.003125 0.00365 0 0.00755 0.003125 0.020052 0.0125 0.039583 0.034635 0.00469 0.004948 0.00469 0.009635 0 0.005469-0.00703 0.010677-0.00573 0.004167-0.016406 0.020833-0.045312 0.076302-0.084896 0.1151-0.00781 0.008073-0.013802 0.008073-0.00495 0-0.010156-0.003646-0.025781-0.015365-0.044271-0.020312 0.045833-0.039844 0.086979-0.10677l-0.14661 0.03724v0.12109q0 0.023438 0.014062 0.030469 0.013802 0.007031 0.053125 0.007031 0.0625 0 0.12917-0.011719 0.0013-2.6042e-4 0.00208-2.6042e-4 0.00547 0 0.00703 0.010938 0.00469 0.025781 0.00469 0.044792 0 0.007292-0.011198 0.007813-0.054948 0.00651-0.12734 0.00651-0.08125 0-0.10911-0.022917-0.024479-0.020312-0.024479-0.071094v-0.10755l-0.034115 0.009115q-0.057292 0.014844-0.07526 0.022917-0.00521 0.002083-0.00625 0.002083-0.00469 0-0.00859-0.008594-0.00833-0.015625-0.021354-0.054427 0.052083-0.00651 0.10026-0.01849z"/>
  <path d="m5.3696 0.14937h0.01875q0.04375 0 0.080469-0.001562 0.00104 0 0.0013 0 0.00547 0 0.00625 0.008594 7.812e-4 0.010156 7.812e-4 0.020833 0 0.010938-7.812e-4 0.021094-7.813e-4 0.008594-0.00703 0.008594-5.208e-4 0-0.00208 0l-0.076823-5.2084e-4h-0.021875q-0.0026 0.060156-0.013281 0.09974-0.00937 0.033854-0.027864 0.064583-0.038021 0.063281-0.12578 0.099219-0.011198 0.004688-0.015104 0.004688-0.00417 0-0.0099-0.00599-0.021094-0.021615-0.044271-0.031771 0.060156-0.01875 0.094531-0.042708 0.030208-0.021094 0.049479-0.051823 0.016406-0.027083 0.023698-0.060677 0.00625-0.029688 0.00755-0.07526h-0.11354v0.019271q0 0.060156 0.00156 0.088281 5.209e-4 0.006771-0.00911 0.007552-0.010156 7.8125e-4 -0.022656 7.8125e-4t-0.023177-7.8125e-4q-0.00964-7.8125e-4 -0.00964-0.00625 0-5.2083e-4 0-0.001302 0.00286-0.045312 0.00286-0.08724v-0.020312h-0.016146q-0.046354 0-0.088021 0.002604-0.00547 0-0.00625-0.010156-0.00156-0.008333-0.00365-0.051562 0.03724 0.002604 0.097917 0.002604h0.016146v-0.038802q0-0.041406-0.00651-0.078385 0.053125 0.0049479 0.065104 0.0083333 0.00807 0.0015625 0.00807 0.0075521 0 0.0028646-0.00313 0.011198-0.00391 0.0096354-0.00391 0.051302v0.038802h0.11461l5.209e-4 -0.052344q2.604e-4 -0.0036458 2.604e-4 -0.010938 0-0.03776-0.00495-0.061979 0.048958 0.0052083 0.0625 0.0091146 0.00964 0.0020833 0.00964 0.0083333 0 0.0039062-0.00234 0.0096354-0.00417 0.011719-0.00417 0.046875z"/>
  <path d="m5.8435 0.17437v0.17656q0 0.046875 0.00156 0.11094 0 0.001302 0 0.001562 0 0.007552-0.00807 0.007552-0.013021 7.8125e-4 -0.026562 7.8125e-4 -0.013542 0-0.026562-7.8125e-4 -0.00755 0-0.00755-0.006771 0-5.2084e-4 0-0.001823 2.604e-4 -0.0125 0.0013-0.059115 7.812e-4 -0.030469 7.812e-4 -0.05026v-0.12422q-0.080469 0.067708-0.14661 0.10234-0.00365 0.002083-0.00807 0.002083-0.00573 0-0.011198-0.005208-0.015104-0.015104-0.045833-0.03151 0.094531-0.048698 0.16797-0.10937 0.065104-0.053385 0.11354-0.11146 0.023437-0.027344 0.033854-0.054948 0.042187 0.023698 0.059115 0.0375 0.00417 0.0028646 0.00417 0.0078125 0 0.0070312-0.00755 0.011719-0.011719 0.0078125-0.031771 0.029427-0.027604 0.033073-0.0625 0.067188z"/>
  <path d="m6.4326 0.14937h0.01875q0.043229 0 0.080469-0.001562 0.00104 0 0.0013 0 0.00547 0 0.00625 0.008594 7.812e-4 0.010156 7.812e-4 0.020833 0 0.010938-7.812e-4 0.021094-7.813e-4 0.008594-0.00703 0.008594h-0.00208l-0.076823-5.2084e-4h-0.021875q-0.0026 0.060156-0.013281 0.09974-0.00938 0.033854-0.027865 0.064583-0.038021 0.063281-0.12578 0.099219-0.011198 0.004688-0.015104 0.004688-0.00417 0-0.0099-0.005729-0.021094-0.021875-0.044271-0.032031 0.060156-0.01875 0.094531-0.042708 0.030208-0.021094 0.049479-0.051823 0.016406-0.027083 0.023698-0.060677 0.00625-0.029688 0.00755-0.07526h-0.11354v0.019271q0 0.060156 0.00156 0.088281 5.208e-4 0.006771-0.00911 0.007552-0.010156 7.8125e-4 -0.022656 7.8125e-4t-0.023177-7.8125e-4q-0.00964-7.8125e-4 -0.00964-0.00625 0-5.2083e-4 0-0.001302 0.00286-0.045312 0.00286-0.08724v-0.020312h-0.016146q-0.046354 0-0.088021 0.002604-0.00547 0-0.00625-0.010156-0.00156-0.008333-0.00365-0.051562 0.03724 0.002604 0.097917 0.002604h0.016146v-0.039062q0-0.041146-0.00651-0.078385 0.053125 0.0052083 0.065104 0.0085938 0.00807 0.0013021 0.00807 0.0075521 0 0.0026042-0.00312 0.011198-0.00391 0.0096354-0.00391 0.051042v0.039062h0.1146l5.208e-4 -0.052345q2.605e-4 -0.0036458 2.605e-4 -0.010938 0-0.038021-0.00495-0.06224 0.048958 0.0052083 0.0625 0.0091146 0.00964 0.0020833 0.00964 0.0085937 0 0.0039062-0.00234 0.0096354-0.00417 0.011719-0.00417 0.046875zm0.016667-0.11589 0.028906-0.013281q0.00156-7.8125e-4 0.0026-7.8125e-4 0.00234 0 0.00469 0.0028646 0.023698 0.02526 0.041146 0.064583 7.813e-4 0.0018229 7.813e-4 0.003125 0 0.0028646-0.00391 0.0049479l-0.021875 0.011198q-0.00234 0.001042-0.00391 0.001042-0.00313 0-0.00521-0.004167-0.018219-0.041406-0.043219-0.069531zm0.051302-0.023958 0.027604-0.01224q0.00182-0.0010417 0.00286-0.0010417 0.00208 0 0.00469 0.003125 0.026562 0.028385 0.040885 0.0625 0.00104 0.0018229 0.00104 0.0036458 0 0.0033854-0.00417 0.0052083l-0.021354 0.010677q-0.00208 0.0010417-0.00365 0.0010417-0.00286 0-0.00495-0.0036458-0.016393-0.038802-0.042955-0.069271z"/>
  <path d="m6.6386 0.21656q0.041667 0.00651 0.1151 0.00651h0.17188q0.02526 0 0.065104-7.8125e-4 0.050781-7.8125e-4 0.057552-0.001042 0.0013 0 0.0026 0 0.00703 0 0.00703 0.007552 7.813e-4 0.01224 7.813e-4 0.02526 0 0.01276-7.813e-4 0.025 0 0.008073-0.00755 0.008073h-0.00208q-0.079948-0.001042-0.11901-0.001042h-0.19193l-0.078385 0.00651q-0.010156 0-0.01224-0.011198-0.00469-0.021094-0.00807-0.064844z"/>
  <path d="m7.1688 0.21864q0.00156-0.002344 0.017708-0.028906 0.00703-0.011458 0.010677-0.016406 0.00391-0.005469 0.00807-0.005469 0.00104 0 0.00182 2.6041e-4 0.055469 0.01849 0.1026 0.052344 0.00573 0.004167 0.00573 0.007813 0 0.001823-0.00208 0.00599-0.00677 0.016406-0.023437 0.040625-0.00443 0.005208-0.00703 0.005208-0.00234 0-0.00625-0.003125-0.045573-0.033594-0.10781-0.058333zm0.064583-0.12526 0.028125-0.042708q0.00365-0.0059896 0.00755-0.0059896 0.00234 0 0.00599 0.0018229 0.060677 0.024479 0.10026 0.059115 0.00417 0.002865 0.00417 0.007031 0 0.003385-0.00208 0.006771-0.015365 0.027604-0.027344 0.040104-0.00182 0.003125-0.00521 0.003125t-0.00807-0.003646q-0.05-0.041406-0.10339-0.065625zm-0.022396 0.30391q0.033854-0.00651 0.072396-0.026042 0.086458-0.045573 0.14609-0.092188 0.082552-0.063021 0.15365-0.14896 0.00365 0.02526 0.015625 0.059896 0.0026 0.00625 0.0026 0.010156 0 0.00625-0.00573 0.01224-0.060937 0.065104-0.13568 0.12318-0.061979 0.047135-0.15938 0.10026-0.028125 0.015104-0.03099 0.018229-0.00417 0.004167-0.00859 0.004167-0.00573 0-0.010677-0.00651-0.015104-0.015104-0.039323-0.054427z"/>
  <path d="m7.9748 0.25562q0.074479 0.055208 0.14766 0.12891 0.00417 0.004167 0.00417 0.007552t-0.00365 0.007813q-0.016927 0.020573-0.035677 0.036458-0.00339 0.003125-0.00651 0.003125-0.00313 0-0.00755-0.004167-0.060156-0.070573-0.13854-0.13229-0.083594 0.08724-0.17917 0.14089-0.00964 0.004167-0.01224 0.004167-0.00521 0-0.00911-0.004688-0.014844-0.01849-0.044792-0.034896 0.064323-0.032552 0.11042-0.067188 0.0375-0.028125 0.077344-0.06875 0.057031-0.059115 0.10026-0.13385l-0.1375 5.2084e-4q-0.041146 0-0.084375 0.003385-0.00521 5.2084e-4 -0.00703-0.009115-0.00469-0.020052-0.00469-0.055469 0.028646 0.0020833 0.090104 0.0020833h0.14661q0.027865 0 0.036719-0.0049479 0.00286-0.0020833 0.00599-0.0020833 0.0026 0 0.00911 0.0041667 0.017188 0.013542 0.034635 0.0375 0.0026 0.004427 0.0026 0.006771 0 0.005469-0.00703 0.010677-0.010937 0.009635-0.019531 0.023698-0.029948 0.050781-0.068229 0.09974z"/>
  <path d="m8.4881 0.23244q-0.0026 0.048698-0.010156 0.079427-0.00677 0.028646-0.021354 0.05651-0.016406 0.032552-0.045313 0.061979-0.023958 0.024219-0.048437 0.038802-0.010156 0.00651-0.015885 0.00651-0.00599 0-0.011198-0.005208-0.017188-0.017188-0.047656-0.028385 0.042969-0.023177 0.067708-0.045833 0.023177-0.021354 0.038542-0.049219 0.015104-0.026823 0.020833-0.054948 0.00469-0.022656 0.00625-0.059635h-0.1013q-0.025521 0-0.079948 0.003125-0.00599 7.8125e-4 -0.00703-0.010156-0.00417-0.023958-0.00417-0.051042 0.029948 0.002604 0.090625 0.002604h0.23958q0.057031 0 0.10391-0.003125 0.00573 0 0.00573 0.010677 5.208e-4 0.005469 5.208e-4 0.020573 0 0.014844-5.208e-4 0.020312 0 0.009115-0.00781 0.009115-0.05651-0.002083-0.1013-0.002083zm-0.19401-0.18177q0.046614 0.0026042 0.088542 0.0026042h0.11953q0.054687 0 0.089844-0.0020833 0.00651 0 0.00651 0.010156 7.813e-4 0.0098958 7.813e-4 0.019271 0 0.0098958-7.813e-4 0.019531 0 0.010156-0.00703 0.010156-0.04349-0.001563-0.089323-0.001563h-0.11953q-0.015104 0-0.075781 0.002083-0.00833 0-0.00911-0.009115-7.813e-4 -0.0072917-0.00182-0.025-0.0013-0.018229-0.00182-0.026042z"/>
  <path d="m8.9407 0.0314q0.053385 0.015885 0.071875 0.027865 0.00651 0.0044271 0.00651 0.0085938 0 0.0044271-0.00547 0.010677-0.00964 0.0125-0.021615 0.044271-0.061719 0.16823-0.091927 0.23984 0.11979-0.010156 0.18672-0.020312-0.027083-0.047917-0.059375-0.085156l0.046615-0.025781q0.00286-0.001562 0.00495-0.001562 0.00365 0 0.00781 0.004687 0.063542 0.074219 0.10781 0.17448 0.00208 0.003646 0.00208 0.007031 0 0.005208-0.00703 0.009115-0.017188 0.011458-0.040365 0.021875-0.00339 0.001562-0.00651 0.001562-0.00495 0-0.00755-0.007552-0.014063-0.032812-0.01875-0.042708-0.098437 0.014844-0.25312 0.03099-0.046875 0.004948-0.0625 0.013021-0.00365 0.001562-0.00677 0.001562-0.00625 0-0.00859-0.007031-0.00599-0.01276-0.01875-0.06875 0.014583 0.001042 0.032552 0.001042 0.00859 0 0.032552-5.2083e-4 0.052865-0.13359 0.093229-0.26406 0.013802-0.044792 0.015625-0.073177z"/>
 </g>
 <path class="secondaryFill" d="m24.6 3.9815h0.8l-0.13022 0.6515h-0.8z"/>
 <g class="secondaryFill" aria-label="mt32-pi">
  <g>
   <path d="m2.7234 2.2405q0.018344-0.10548-0.032103-0.1651-0.045861-0.064205-0.15134-0.064205h-0.94932q-0.10548 0-0.18344 0.064205-0.073378 0.059619-0.091722 0.1651l-0.26599 1.3116q-0.032103 0.16969-0.20179 0.16969h-0.42651q-0.16969 0-0.13758-0.16969l0.2981-1.4859q0.032103-0.1651 0.11007-0.2981 0.08255-0.13758 0.1972-0.2293 0.11465-0.096308 0.25682-0.14676 0.14676-0.055033 0.31185-0.055033h1.252q0.20179 0 0.3302 0.077964t0.18344 0.21555q0.11465-0.13758 0.27517-0.21555 0.16051-0.077964 0.3623-0.077964h1.252q0.1651 0 0.28434 0.055033 0.12382 0.050447 0.20179 0.14676 0.077964 0.091722 0.10089 0.2293 0.027517 0.133-0.00459 0.2981l-0.29809 1.4859q-0.032103 0.16969-0.20179 0.16969h-0.42651q-0.16969 0-0.13758-0.16969l0.26599-1.3116q0.018344-0.10548-0.032103-0.1651-0.045861-0.064205-0.15134-0.064205h-0.94932q-0.10548 0-0.18344 0.064205-0.073378 0.059619-0.091722 0.1651l-0.26599 1.3116q-0.032103 0.16969-0.20179 0.16969h-0.42651q-0.16969 0-0.13758-0.16969l0.26599-1.3116z"/>
   <path d="m8.5916 3.0477q0.16969 0 0.13758 0.16969l-0.068792 0.33479q-0.032103 0.16969-0.20179 0.16969h-1.5363q-0.1651 0-0.28892-0.050447-0.11924-0.055033-0.1972-0.14676-0.077964-0.096308-0.10548-0.2293-0.02293-0.13758 0.0091722-0.30268l0.1972-0.98143h-0.31644q-0.16969 0-0.13758-0.16969l0.068792-0.33479q0.032103-0.16969 0.20179-0.16969h0.31644l0.08255-0.40358q0.032103-0.16969 0.20179-0.16969h0.42651q0.16969 0 0.13758 0.16969l-0.08255 0.40358h1.4676q0.16969 0 0.13758 0.16969l-0.068792 0.33479q-0.032103 0.16969-0.20179 0.16969h-1.4676l-0.1651 0.80715q-0.018344 0.10548 0.027517 0.16969 0.050447 0.059619 0.15593 0.059619h1.2703z"/>
   <path d="m12.836 3.011q0.27058 0 0.32103-0.24765l0.0092-0.045861q0.050419-0.24765-0.22016-0.24765h-3.0956q-0.18344 0-0.14676-0.18344l0.064205-0.33937q0.036689-0.18344 0.22013-0.18344h3.0498q0.12841 0 0.21096-0.059619 0.08714-0.064205 0.11007-0.18803l0.0092-0.045861q0.05042-0.24765-0.22016-0.24765h-3.5084q-0.18344 0-0.14676-0.18344l0.068792-0.34396q0.036689-0.18344 0.22013-0.18344h3.6459q0.44485 0 0.65581 0.17886 0.21555 0.17427 0.12841 0.60995l-0.02293 0.11465q-0.05503 0.27517-0.19262 0.44485-0.13758 0.1651-0.34854 0.24765 0.1972 0.077964 0.27975 0.25224 0.08255 0.16969 0.02293 0.45861l-0.02293 0.11465q-0.08714 0.43568-0.37147 0.61454-0.27975 0.17427-0.7246 0.17427h-3.6918q-0.18344 0-0.14676-0.18344l0.068791-0.34396q0.036689-0.18344 0.22013-0.18344h3.5542z"/>
   <path d="m14.331 2.5524q0.04586-0.22013 0.14217-0.36689 0.09631-0.15134 0.23848-0.24306 0.14676-0.096308 0.3302-0.13758 0.18803-0.041275 0.40816-0.041275h2.7058q0.27058 0 0.32103-0.24765l0.0092-0.045861q0.05045-0.24765-0.22013-0.24765h-3.3708q-0.18344 0-0.14676-0.18344l0.06879-0.34396q0.03669-0.18344 0.22013-0.18344h3.4854q0.22013 0 0.38982 0.041275 0.16968 0.041275 0.27517 0.13758 0.11007 0.091722 0.14676 0.24306 0.03669 0.14676-0.0046 0.36689l-0.07796 0.38065q-0.04586 0.22013-0.14217 0.37147-0.09631 0.14676-0.24306 0.24306-0.14217 0.091722-0.3302 0.133-0.18344 0.041275-0.40358 0.041275h-2.7058q-0.27058 0-0.32103 0.24765l-0.05962 0.29351h3.7331q0.18344 0 0.14676 0.18344l-0.06879 0.34396q-0.03669 0.18344-0.22013 0.18344h-4.3568q-0.18344 0-0.14676-0.18344z"/>
   <path d="m19.492 2.0754q0.0321-0.1651 0.1972-0.1651h1.4125q0.1651 0 0.133 0.1651l-0.07796 0.38065q-0.0321 0.1651-0.1972 0.1651h-1.4125q-0.1651 0-0.133-0.1651z"/>
  </g>
  <path d="m22.658 3.7218q-0.20637 0-0.33937-0.068792-0.12841-0.068791-0.19262-0.18803l-0.21096 1.064q-0.03669 0.16969-0.20638 0.16969h-0.42651q-0.16969 0-0.133-0.16969l0.49071-2.4627q0.0321-0.1651 0.11007-0.2981 0.08255-0.13758 0.1972-0.2293 0.11465-0.096308 0.25682-0.14676 0.14676-0.055033 0.31186-0.055033h2.4169q0.1651 0 0.28434 0.055033 0.12382 0.050447 0.20179 0.14676 0.07796 0.091722 0.1009 0.2293 0.02752 0.133-0.0046 0.2981l-0.18344 0.92639q-0.0321 0.1651-0.11465 0.30268-0.07796 0.133-0.19262 0.2293-0.11465 0.091722-0.26141 0.14676-0.14217 0.050447-0.30727 0.050447zm-0.40358-0.90346q-0.01834 0.10548 0.02752 0.16969 0.05045 0.059619 0.15593 0.059619h1.8849q0.10548 0 0.17886-0.059619 0.07796-0.064205 0.09631-0.16969l0.11924-0.57785q0.01835-0.10548-0.0321-0.1651-0.04586-0.064205-0.15134-0.064205h-1.8849q-0.10548 0-0.18344 0.064205-0.07338 0.059619-0.09172 0.1651z" fill="none" class="secondaryStroke" stroke-width=".2"/>
  <path d="m26.599 2.9284q-0.01376 0.050447 0.0046 0.087136 0.02293 0.032103 0.08714 0.032103h0.19262q0.16968 0 0.13758 0.16969l-0.06879 0.33479q-0.0321 0.16969-0.20179 0.16969h-0.39899q-0.3302 0-0.47237-0.17427-0.13758-0.17886-0.06879-0.50906l0.30727-1.5318q0.0321-0.16969 0.20179-0.16969h0.42651q0.16968 0 0.13758 0.16969zm0.41734-2.1004q-0.0321 0.16969-0.20179 0.16969h-0.42651q-0.16969 0-0.13758-0.16969l0.06421-0.32103q0.03669-0.16969 0.20638-0.16969h0.42651q0.16969 0 0.133 0.16969z" fill="none" class="secondaryStroke" stroke-width=".2"/>
 </g>
 <g>
  <g class="primaryFill" aria-label="mt32-pi">
   <g>
    <path d="m2.6234 2.0895q0.018344-0.10548-0.032103-0.1651-0.045861-0.064205-0.15134-0.064205h-0.94932q-0.10548 0-0.18344 0.064205-0.073378 0.059619-0.091722 0.1651l-0.26599 1.3116q-0.032103 0.16969-0.20179 0.16969h-0.42651q-0.16969 0-0.13758-0.16969l0.2981-1.4859q0.032103-0.1651 0.11007-0.2981 0.08255-0.13758 0.1972-0.2293 0.11465-0.096308 0.25682-0.14676 0.14676-0.055033 0.31185-0.055033h1.252q0.20179 0 0.3302 0.077964t0.18344 0.21555q0.11465-0.13758 0.27517-0.21555 0.16051-0.077964 0.3623-0.077964h1.252q0.1651 0 0.28434 0.055033 0.12382 0.050447 0.20179 0.14676 0.077964 0.091722 0.10089 0.2293 0.027517 0.133-0.00459 0.2981l-0.29809 1.4859q-0.032103 0.16969-0.20179 0.16969h-0.42651q-0.16969 0-0.13758-0.16969l0.26599-1.3116q0.018344-0.10548-0.032103-0.1651-0.045861-0.064205-0.15134-0.064205h-0.94932q-0.10548 0-0.18344 0.064205-0.073378 0.059619-0.091722 0.1651l-0.26599 1.3116q-0.032103 0.16969-0.20179 0.16969h-0.42651q-0.16969 0-0.13758-0.16969l0.26599-1.3116z"/>
    <path d="m8.4916 2.8967q0.16969 0 0.13758 0.16969l-0.068792 0.33479q-0.032103 0.16969-0.20179 0.16969h-1.5363q-0.1651 0-0.28892-0.050447-0.11924-0.055033-0.1972-0.14676-0.077964-0.096308-0.10548-0.2293-0.02293-0.13758 0.0091722-0.30268l0.1972-0.98143h-0.31644q-0.16969 0-0.13758-0.16969l0.068792-0.33479q0.032103-0.16969 0.20179-0.16969h0.31644l0.08255-0.40358q0.032102-0.16969 0.20179-0.16969h0.42651q0.16969 0 0.13758 0.16969l-0.08255 0.40358h1.4676q0.16969 0 0.13758 0.16969l-0.068791 0.33479q-0.032103 0.16969-0.20179 0.16969h-1.4676l-0.1651 0.80715q-0.018344 0.10548 0.027517 0.16969 0.050447 0.059619 0.15593 0.059619h1.2703z"/>
    <path d="m12.736 2.86q0.27058 0 0.32103-0.24765l0.0092-0.045861q0.05042-0.24765-0.22016-0.24765h-3.0956q-0.18344 0-0.14676-0.18344l0.064205-0.33937q0.036689-0.18344 0.22013-0.18344h3.0498q0.12841 0 0.21096-0.059619 0.08714-0.064205 0.11007-0.18803l0.0092-0.045861q0.050419-0.24765-0.22016-0.24765h-3.5084q-0.18344 0-0.14676-0.18344l0.068792-0.34396q0.036689-0.18344 0.22013-0.18344h3.6459q0.44485 0 0.65581 0.17886 0.21555 0.17427 0.12841 0.60995l-0.02293 0.11465q-0.05503 0.27517-0.19262 0.44485-0.13758 0.1651-0.34854 0.24765 0.1972 0.077964 0.27975 0.25224 0.08255 0.16969 0.02293 0.45861l-0.02293 0.11465q-0.08714 0.43568-0.37147 0.61454-0.27975 0.17427-0.7246 0.17427h-3.6918q-0.18344 0-0.14676-0.18344l0.068791-0.34396q0.036689-0.18344 0.22013-0.18344h3.5542z"/>
    <path d="m14.231 2.4014q0.04586-0.22013 0.14217-0.36689 0.09631-0.15134 0.23848-0.24306 0.14676-0.096308 0.3302-0.13758 0.18803-0.041275 0.40816-0.041275h2.7058q0.27058 0 0.32103-0.24765l0.0092-0.045861q0.050419-0.24765-0.22016-0.24765h-3.3708q-0.18344 0-0.14676-0.18344l0.06879-0.34396q0.03669-0.18344 0.22013-0.18344h3.4854q0.22013 0 0.38982 0.041275t0.27517 0.13758q0.11007 0.091722 0.14676 0.24306 0.03669 0.14676-0.0046 0.36689l-0.077947 0.38065q-0.04586 0.22013-0.14217 0.37147-0.09631 0.14676-0.24306 0.24306-0.14217 0.091722-0.3302 0.133-0.18344 0.041275-0.40358 0.041275h-2.7058q-0.27058 0-0.32103 0.24765l-0.05962 0.29351h3.7331q0.18344 0 0.14676 0.18344l-0.06879 0.34396q-0.03669 0.18344-0.22013 0.18344h-4.3568q-0.18344 0-0.14676-0.18344z"/>
    <path d="m19.392 1.9244q0.032103-0.1651 0.1972-0.1651h1.4125q0.1651 0 0.133 0.1651l-0.07796 0.38065q-0.0321 0.1651-0.1972 0.1651h-1.4125q-0.1651 0-0.133-0.1651z"/>
   </g>
   <path d="m22.558 3.5708q-0.20638 0-0.33937-0.068792-0.12841-0.068792-0.19262-0.18803l-0.21096 1.064q-0.03669 0.16969-0.20637 0.16969h-0.42651q-0.16969 0-0.133-0.16969l0.49071-2.4627q0.0321-0.1651 0.11007-0.2981 0.08255-0.13758 0.1972-0.2293 0.11465-0.096308 0.25682-0.14676 0.14676-0.055033 0.31186-0.055033h2.4169q0.1651 0 0.28434 0.055033 0.12382 0.050447 0.20179 0.14676 0.07796 0.091722 0.10089 0.2293 0.02752 0.133-0.0046 0.2981l-0.18344 0.92639q-0.0321 0.1651-0.11465 0.30268-0.07796 0.133-0.19262 0.2293-0.11465 0.091722-0.26141 0.14676-0.14217 0.050447-0.30727 0.050447zm-0.40358-0.90346q-0.01835 0.10548 0.02752 0.16969 0.05045 0.059619 0.15593 0.059619h1.8849q0.10548 0 0.17886-0.059619 0.07796-0.064205 0.09631-0.16969l0.11924-0.57785q0.01834-0.10548-0.0321-0.1651-0.04586-0.064205-0.15134-0.064205h-1.8849q-0.10548 0-0.18344 0.064205-0.07338 0.059619-0.09172 0.1651z" fill="none" class="primaryStroke" stroke-width=".2"/>
   <path d="m26.499 2.7774q-0.01376 0.050447 0.0046 0.087136 0.02293 0.032103 0.08714 0.032103h0.19262q0.16969 0 0.13758 0.16969l-0.06879 0.33479q-0.0321 0.16969-0.20179 0.16969h-0.39899q-0.3302 0-0.47237-0.17427-0.13758-0.17886-0.06879-0.50906l0.30727-1.5318q0.0321-0.16969 0.20179-0.16969h0.42651q0.16969 0 0.13758 0.16969zm0.41734-2.1004q-0.0321 0.16969-0.20179 0.16969h-0.42651q-0.16968 0-0.13758-0.16969l0.06421-0.32103q0.036684-0.16969 0.20637-0.16969h0.42651q0.16969 0 0.133 0.16969z" fill="none" class="primaryStroke" stroke-width=".2"/>
  </g>
 </g>
</svg>
